<svg xmlns="http://www.w3.org/2000/svg" version="1.1" xmlns:xlink="http://www.w3.org/1999/xlink" xmlns:svgjs="http://svgjs.dev/svgjs" width="2560" height="1000" preserveAspectRatio="none" viewBox="0 0 2560 1000"><g mask="url(&quot;#SvgjsMask1209&quot;)" fill="none"><path d="M279.42 621.45 a208.82 208.82 0 1 0 417.64 0 a208.82 208.82 0 1 0 -417.64 0z" fill="rgba(48, 131, 255, 0.49)" class="triangle-float3"></path><path d="M1591.23 32.07 a284.73 284.73 0 1 0 569.46 0 a284.73 284.73 0 1 0 -569.46 0z" fill="rgba(48, 131, 255, 0.49)" class="triangle-float2"></path><path d="M70.84 17.91 a249.36 249.36 0 1 0 498.72 0 a249.36 249.36 0 1 0 -498.72 0z" fill="rgba(48, 131, 255, 0.49)" class="triangle-float3"></path><path d="M806.27 384.46 a198.44 198.44 0 1 0 396.88 0 a198.44 198.44 0 1 0 -396.88 0z" fill="rgba(48, 131, 255, 0.49)" class="triangle-float1"></path><path d="M1823.78 612.84 a182.51 182.51 0 1 0 365.02 0 a182.51 182.51 0 1 0 -365.02 0z" fill="rgba(48, 131, 255, 0.49)" class="triangle-float3"></path><path d="M1877.63 921.77 a274.35 274.35 0 1 0 548.7 0 a274.35 274.35 0 1 0 -548.7 0z" fill="rgba(48, 131, 255, 0.49)" class="triangle-float3"></path><path d="M-143.82 47.3 a174.95 174.95 0 1 0 349.9 0 a174.95 174.95 0 1 0 -349.9 0z" fill="rgba(48, 131, 255, 0.49)" class="triangle-float3"></path><path d="M339.78 369.19 a184.32 184.32 0 1 0 368.64 0 a184.32 184.32 0 1 0 -368.64 0z" fill="rgba(48, 131, 255, 0.49)" class="triangle-float1"></path><path d="M933.67 883.91 a232.45 232.45 0 1 0 464.9 0 a232.45 232.45 0 1 0 -464.9 0z" fill="rgba(48, 131, 255, 0.49)" class="triangle-float3"></path><path d="M-59.85 127.46 a236.94 236.94 0 1 0 473.88 0 a236.94 236.94 0 1 0 -473.88 0z" fill="rgba(48, 131, 255, 0.49)" class="triangle-float3"></path><path d="M-189.4 429.69 a280.95 280.95 0 1 0 561.9 0 a280.95 280.95 0 1 0 -561.9 0z" fill="rgba(48, 131, 255, 0.49)" class="triangle-float1"></path><path d="M1763.14 962.34 a283.54 283.54 0 1 0 567.08 0 a283.54 283.54 0 1 0 -567.08 0z" fill="rgba(48, 131, 255, 0.49)" class="triangle-float3"></path></g><defs><mask id="SvgjsMask1209"><rect width="2560" height="1000" fill="#ffffff"></rect></mask></defs></svg>